<svg width="475" height="456" viewBox="0 0 475 456" fill="none" xmlns="http://www.w3.org/2000/svg">
<g clip-path="url(#clip0_103_81)">
<path d="M267 2.99998C267.992 3.20398 268.985 3.40797 270.007 3.61815C305.589 11.1421 339.741 24.0575 366 50C367.16 51.0519 367.16 51.0519 368.344 52.125C377.398 60.5415 384.21 71.1434 389.625 82.1875C392.293 87.3883 394.632 89.6511 399.922 92.0351C405.153 94.464 407.948 98.8073 410 104C410.432 107.633 410.419 111.221 410.375 114.875C410.387 115.83 410.398 116.785 410.41 117.77C410.391 122.403 410.181 126.043 408.242 130.285C406.563 133.962 406.563 133.962 408.359 137.316C409.129 138.418 409.928 139.499 410.75 140.562C411.617 141.794 412.481 143.027 413.344 144.262C413.791 144.885 414.238 145.508 414.699 146.15C416.687 148.977 418.48 151.908 420.25 154.875C420.79 155.779 420.79 155.779 421.341 156.701C430.935 172.943 439.769 189.569 447 207C447.524 208.261 447.524 208.261 448.058 209.548C454.692 225.756 460.055 242.301 462.438 259.687C463.376 266.425 465.273 270.969 469.281 276.582C474.992 284.616 476.075 293.221 475.387 302.905C474.946 305.294 474.104 307.185 473.09 309.391C470.227 316.088 469.886 323.109 469.275 330.281C468.91 334.517 468.488 338.746 468.062 342.977C467.977 343.827 467.892 344.677 467.805 345.553C460.799 413.721 460.799 413.721 440.348 432.426C415.846 451.995 380.548 456.085 350.215 456.203C349.013 456.21 347.811 456.217 346.573 456.224C342.694 456.242 338.816 456.248 334.938 456.25C333.944 456.25 333.944 456.25 332.93 456.251C312.539 456.252 292.418 455.909 272.172 453.282C269.813 452.976 267.452 452.679 265.091 452.382C240.854 449.299 216.847 445.321 193 440C192.332 439.852 191.664 439.703 190.975 439.551C174.374 435.851 158.144 431.289 142 425.937C141.261 425.694 140.522 425.45 139.76 425.199C131.809 422.562 123.985 419.7 116.281 416.406C115.63 416.133 114.978 415.859 114.307 415.577C108.084 412.841 103.664 408.841 99 404C98.0119 403.08 98.0119 403.08 97.0039 402.141C44.5221 352.721 1.85247 259.979 -0.335938 188.281C-0.36577 185.688 -0.378556 183.094 -0.375001 180.5C-0.374457 179.825 -0.373913 179.15 -0.373353 178.455C-0.324379 165.217 0.067153 151.933 10 142C14.4 138 14.4 138 17 138C17.1354 137.319 17.2707 136.639 17.4102 135.937C23.1883 109.919 39.1701 86.473 57.478 67.5732C58.5472 66.468 59.6095 65.3561 60.6665 64.2392C74.9075 49.2117 91.4621 35.862 109.727 25.9687C112.756 24.1466 114.228 22.8679 116.25 20.0625C122.994 11.9965 132.966 10.0583 143 8.99998C144.812 8.89198 146.625 8.7879 148.438 8.68748C154.09 8.28375 159.34 7.00827 164.812 5.62498C197.077 -2.25962 234.35 -3.81678 267 2.99998Z" fill="#0F6DF9"/>
<path d="M410 114C410.521 125.587 410.521 125.587 407.938 129.875C406.972 131.766 406.972 131.766 407 134C409.119 138.378 411.868 142.207 414.699 146.15C416.687 148.977 418.48 151.908 420.25 154.875C420.79 155.779 420.79 155.779 421.341 156.701C430.935 172.943 439.769 189.569 447 207C447.349 207.841 447.698 208.682 448.058 209.548C453.116 221.905 457.233 234.408 460.358 247.393C460.777 249.093 461.219 250.788 461.688 252.475C463.846 260.235 465.394 266.645 461.436 274.025C459.482 277.177 457.305 280.099 455 283C454.242 283.998 453.484 284.995 452.703 286.023C450.544 288.757 448.299 291.383 446 294C445.304 294.829 444.608 295.658 443.891 296.512C429.962 312.702 412.234 324.115 393 333C391.884 333.522 390.767 334.044 389.617 334.582C372.467 342.265 354.793 347.25 336.295 350.433C334.118 350.807 331.943 351.196 329.771 351.599C273.67 361.869 210.97 354.523 157 337C156.209 336.746 155.419 336.493 154.604 336.231C137.856 330.803 122.585 324.463 109 313C108.189 312.337 107.378 311.675 106.543 310.992C99.8992 305.039 96.4371 297.896 92.8506 289.884C92.1354 288.3 91.3737 286.737 90.6016 285.18C83.0998 269.173 79.8269 250.104 79.8125 232.5C79.8003 231.71 79.788 230.92 79.7754 230.105C79.7556 222.028 80.5774 214.326 86 208C91.0631 204.781 95.2145 204.572 101.016 204.594C102.826 204.574 104.637 204.554 106.447 204.534C107.867 204.526 107.867 204.526 109.316 204.518C136.402 204.349 163.289 202.668 190 198C191.157 197.806 192.313 197.611 193.505 197.411C221.067 192.768 248.472 187.088 274.962 178.035C277.839 177.055 280.721 176.094 283.605 175.137C300.711 169.449 317.515 163.328 334 156C335.589 155.294 335.589 155.294 337.209 154.574C356.159 146.099 374.668 137.046 392.375 126.188C393.237 125.66 394.099 125.133 394.988 124.59C398.282 122.529 406.712 114 410 114Z" fill="#232C2E"/>
<path d="M394.605 89.1133C401.114 91.5234 405.634 94.8057 409 101C410.48 105.441 410.902 109.377 410 114C404.911 122.057 392.058 127.3 384 132C383.291 132.417 382.582 132.833 381.851 133.262C342.082 156.476 296.687 174.794 252 186C250.79 186.304 249.58 186.607 248.333 186.92C215.818 195.012 183.38 200.943 150 204C148.886 204.104 147.773 204.208 146.626 204.315C139.5 204.904 132.4 205.093 125.254 205.176C124.305 205.188 123.356 205.2 122.379 205.212C118.438 205.261 114.498 205.308 110.558 205.326C107.644 205.341 104.73 205.382 101.816 205.426C100.934 205.424 100.052 205.422 99.1425 205.42C93.2862 205.536 89.7978 206.582 85 210C77.9707 220.544 80.0466 239.496 82.2578 251.461C82.5027 252.629 82.7477 253.797 83 255C83.1453 255.744 83.2907 256.488 83.4404 257.255C85.5003 267.661 88.2715 277.48 92.4375 287.25C92.9761 288.517 92.9761 288.517 93.5256 289.809C102.613 310.19 119.383 322.297 139.76 330.165C153.591 335.323 167.647 339.568 182 343C182.868 343.209 183.736 343.417 184.63 343.632C235.273 355.634 288.723 358.392 340 349C341.078 348.808 342.157 348.616 343.268 348.417C364.158 344.575 384.399 337.228 403 327C404.208 326.358 405.417 325.716 406.625 325.074C427.781 313.632 454.105 292.685 462 269C467.513 271.167 469.345 276.002 472 281C472.347 281.619 472.694 282.238 473.051 282.875C476.669 290.557 476.326 302.065 473.875 310.062C470.215 317.858 463.006 323.984 457 330C456.417 330.602 455.835 331.205 455.235 331.825C451.424 335.736 447.484 339.173 443.062 342.375C442.42 342.842 441.777 343.309 441.115 343.79C434.071 348.805 426.665 353.017 419 357C417.32 357.889 417.32 357.889 415.605 358.797C388.29 372.408 358.952 377.419 329 381C327.97 381.132 327.97 381.132 326.919 381.266C321.327 381.946 315.806 382.189 310.176 382.238C309.248 382.248 308.321 382.258 307.365 382.268C275.351 382.534 244.061 380.789 212.769 373.628C210.02 373.004 207.264 372.423 204.504 371.852C175.663 365.766 148 355.91 122 342C121.32 341.641 120.639 341.281 119.938 340.911C92.3369 326.245 78.612 304.556 69.1953 275.34C64.4187 258.813 61.7981 242.076 61.7048 224.902C61.6933 223.431 61.6729 221.96 61.6433 220.49C61.4458 210.623 61.5324 201.146 67.5769 192.831C73.6341 188.254 81.9391 188.69 89.2305 188.621C90.6598 188.596 90.6598 188.596 92.118 188.57C95.1411 188.517 98.1642 188.476 101.187 188.437C118.094 188.188 134.673 187.673 151.438 185.25C152.646 185.076 153.855 184.902 155.1 184.722C165.6 183.156 175.919 181.047 186.253 178.632C188.999 178 191.751 177.404 194.508 176.816C207.917 173.933 220.964 170.257 234 166C235.21 165.605 236.42 165.211 237.666 164.804C289.66 147.746 346.122 124.777 389.328 90.5625C392 89 392 89 394.605 89.1133Z" fill="#F8FF6E"/>
<path d="M342.216 171.578C344.362 173.288 345.407 174.878 346.742 177.277C347.494 178.614 347.494 178.614 348.261 179.978C348.794 180.955 349.326 181.931 349.875 182.938C350.442 183.962 351.008 184.987 351.592 186.043C353.411 189.354 355.208 192.675 357 196C357.576 197.061 358.153 198.122 358.747 199.215C404 282.886 404 282.886 404 314C393.262 320.005 382.525 325.499 370.938 329.688C370.005 330.026 369.072 330.364 368.111 330.713C364.11 332.11 361.297 333 357 333C356.81 332.273 356.62 331.547 356.424 330.798C343.655 282.338 325.761 230.602 294 191C294 190.34 294 189.68 294 189C294.896 188.668 295.792 188.336 296.715 187.994C300.112 186.734 303.508 185.469 306.903 184.203C308.359 183.66 309.815 183.119 311.272 182.58C313.394 181.793 315.513 181.003 317.633 180.211C318.682 179.821 318.682 179.821 319.753 179.422C323.232 178.111 326.654 176.734 330.038 175.192C330.674 174.905 331.31 174.617 331.965 174.32C333.697 173.526 335.419 172.71 337.14 171.893C340 171 340 171 342.216 171.578Z" fill="#4E5758"/>
<path d="M380 150C383.988 151.49 385.236 153.587 387.25 157.258C388.153 158.889 388.153 158.889 389.075 160.554C389.717 161.744 390.359 162.934 391 164.125C391.671 165.357 392.343 166.588 393.015 167.819C409.95 198.981 423.832 231.113 435.739 264.487C436.492 266.586 437.262 268.679 438.065 270.759C439.847 275.531 440.637 278.973 439 284C437.062 286.6 434.822 288.749 432.438 290.938C431.822 291.526 431.206 292.114 430.572 292.721C429.061 294.161 427.532 295.583 426 297C424.067 294.101 423.348 292.134 422.441 288.82C422.144 287.761 421.846 286.702 421.54 285.611C421.217 284.46 420.895 283.31 420.562 282.125C413.756 258.596 404.644 236.046 394 214C393.519 212.996 393.038 211.992 392.543 210.958C384.503 194.238 375.691 178.107 365.115 162.845C364 161 364 161 364 159C365.607 158.151 365.607 158.151 367.246 157.285C368.643 156.544 370.04 155.803 371.438 155.062C372.145 154.689 372.852 154.316 373.58 153.932C377.005 152.275 377.005 152.275 380 150Z" fill="#4E5758"/>
<path d="M405 133C410.288 137.597 413.47 143.32 417 149.312C417.655 150.417 418.31 151.521 418.985 152.659C429.359 170.273 439.16 188.101 447 207C447.349 207.841 447.698 208.682 448.058 209.548C452.103 219.43 455.582 229.396 458.438 239.688C458.685 240.572 458.932 241.456 459.186 242.367C460.739 248.224 461.574 253.958 462 260C461.447 259.282 460.894 258.563 460.324 257.823C457.968 254.961 455.48 252.416 452.824 249.832C451.821 248.846 450.817 247.86 449.814 246.873C448.258 245.347 446.699 243.824 445.135 242.306C432.317 229.851 424.231 217.252 419.125 200.062C418.788 198.944 418.45 197.826 418.103 196.674C403.952 149.155 403.952 149.155 405 133Z" fill="#434747"/>
<path d="M146.496 8.63672C153.015 8.71242 159.032 11.6892 165 14.0625C166.314 14.5756 167.628 15.088 168.942 15.5999C172.636 17.0455 176.319 18.5199 180 20C180.843 20.3348 181.686 20.6697 182.554 21.0146C206.183 30.4749 229.085 44.1778 249 60C249.942 60.7386 250.885 61.4773 251.855 62.2383C257.975 67.1259 263.585 72.3439 269 78C265.601 78 264.769 77.4324 261.992 75.6133C261.184 75.0936 260.376 74.574 259.543 74.0386C258.662 73.469 257.782 72.8994 256.875 72.3125C232.09 56.6978 205.44 43.944 177.007 36.5327C174.871 35.9659 172.751 35.3548 170.629 34.7383C151.823 29.3829 132.54 26.4991 113 26C115.354 19.2787 119.888 15.8311 126.188 12.75C132.728 10.0714 139.523 9.36126 146.496 8.63672Z" fill="#F8FF6E"/>
<path d="M20 126C20.7786 126.061 21.5572 126.121 22.3594 126.184C26.2384 126.474 30.1188 126.74 34 127C35.2485 127.084 36.4969 127.168 37.7832 127.254C55.5215 128.326 73.3033 128.335 91.0676 128.532C95.5802 128.583 100.093 128.638 104.605 128.693C113.404 128.8 122.202 128.901 131 129C131 129.33 131 129.66 131 130C118.296 132.308 105.589 134.296 92.75 135.688C91.6772 135.806 90.6044 135.925 89.499 136.048C72.1074 137.852 54.7193 138.145 37.25 138.062C35.3659 138.057 33.4818 138.053 31.5977 138.049C27.0651 138.038 22.5326 138.021 18 138C18.1417 136.562 18.2885 135.125 18.4375 133.688C18.5187 132.887 18.5999 132.086 18.6836 131.262C19 129 19 129 20 126Z" fill="#F8FF6E"/>
<path d="M108 350C111.504 351.329 113.383 352.383 116 355C115.812 357.5 115.812 357.5 115 360C110.332 363.112 105.467 362.607 100 362C96.6845 360.661 94.5183 358.518 92 356C92.1875 354 92.1875 354 93 352C97.6677 348.888 102.531 349.516 108 350Z" fill="#F8FF6E"/>
</g>
<defs>
<clipPath id="clip0_103_81">
<rect width="475" height="456" fill="white"/>
</clipPath>
</defs>
</svg>
