<svg width="556" height="543" viewBox="0 0 556 543" fill="none" xmlns="http://www.w3.org/2000/svg">
<g filter="url(#filter0_i_113_291)">
<path d="M352.53 57.6371L355.353 58.8434C388.715 73.3239 419.599 92.8013 440.146 123.467L442.018 126.017C449.208 136.072 453.764 147.821 456.865 159.725C458.44 165.354 460.28 168.038 464.987 171.431C469.627 174.856 471.498 179.67 472.471 185.168C472.169 188.813 471.44 192.327 470.666 195.899L470.123 198.742C469.178 203.278 468.246 206.803 465.498 210.572C463.118 213.84 463.118 213.84 464.208 217.485C464.743 218.718 465.31 219.937 465.902 221.143C466.506 222.523 467.107 223.904 467.705 225.286L468.656 227.407C470.039 230.575 471.21 233.804 472.352 237.065L473.056 239.072C479.212 256.903 484.546 274.958 488.15 293.483L488.677 296.191C489.745 301.824 491.019 295.418 492.13 288.951C491.114 236.704 491.605 257.021 492.297 287.971C494.489 275.058 495.949 264.332 493.706 352.22C493.706 352.22 492.92 315.798 492.297 287.971C492.242 288.297 492.186 288.624 492.13 288.951C492.442 304.966 492.895 327.798 493.527 359.232C498.078 585.421 310.788 535.627 106.226 414.773C64.6743 355.866 41.3914 256.469 53.5699 185.779C54.0588 183.232 54.5644 180.688 55.0861 178.147L55.4963 176.143C58.1887 163.182 61.2261 150.244 72.9429 142.495C78.0533 139.455 78.0533 139.455 80.6009 139.974L81.4148 138.035C92.2742 113.695 112.617 93.9148 134.332 79.0533C135.6 78.184 136.863 77.3066 138.122 76.4235C155.078 64.5437 173.966 54.7701 193.839 48.7249C197.171 47.5447 198.869 46.5857 201.41 44.2409C209.63 37.6847 219.788 37.7776 229.831 38.7451C231.628 39.0013 233.425 39.2614 235.221 39.5251C240.84 40.2587 246.24 40.0577 251.878 39.7955C285.068 38.5153 321.9 44.4353 352.53 57.6371Z" fill="#0F6DF9"/>
</g>
<path d="M107.468 416.2C339.998 551.723 497.997 566.723 493.603 357.031C480.542 536.275 355.055 533.554 107.468 416.2Z" fill="black" fill-opacity="0.35"/>
<path d="M355.353 58.8434L352.53 57.6371C321.9 44.4353 285.068 38.5153 251.878 39.7955C246.24 40.0577 240.84 40.2587 235.221 39.5251C233.425 39.2614 231.628 39.0013 229.831 38.7451C219.788 37.7776 209.63 37.6847 201.41 44.2409C258.161 64.4306 291.431 79.1923 315.325 110.091C263.744 83.1365 227.421 70.453 169.604 58.0944C158.577 63.2712 148.021 69.4884 138.122 76.4235C136.863 77.3066 135.6 78.184 134.332 79.0533C117.809 90.3618 102.08 104.518 90.7186 121.365L194.165 154.014L85.2986 130.23C83.8981 132.777 82.6 135.379 81.4148 138.035L80.6009 139.974C78.0533 139.455 78.0533 139.455 72.9429 142.495C61.2261 150.244 58.1887 163.182 55.4963 176.143L55.0861 178.147C54.5644 180.688 54.0588 183.232 53.5699 185.779C53.3919 236.587 55.5557 268.248 69.1715 338.386C52.484 287.83 45.7887 230.945 53.5699 185.779C54.0588 183.232 54.5644 180.688 55.0861 178.147L55.4963 176.143C58.1887 163.182 61.2261 150.244 72.9429 142.495C78.0533 139.455 78.0533 139.455 80.6009 139.974L81.4148 138.035C82.6 135.379 83.8981 132.777 85.2986 130.23C86.966 127.197 88.7787 124.242 90.7186 121.365C102.08 104.518 117.809 90.3618 134.332 79.0533C135.6 78.184 136.863 77.3066 138.122 76.4235C148.021 69.4884 158.577 63.2712 169.604 58.0944C177.466 54.4033 185.567 51.2411 193.839 48.7249C197.171 47.5447 198.869 46.5857 201.41 44.2409C209.63 37.6847 219.788 37.7776 229.831 38.7451C231.628 39.0013 233.425 39.2614 235.221 39.5251C240.84 40.2587 246.24 40.0577 251.878 39.7955C285.068 38.5153 321.9 44.4353 352.53 57.6371L355.353 58.8434C388.715 73.3239 419.599 92.8013 440.146 123.467L442.018 126.017C447.134 133.171 450.916 141.183 453.789 149.497C454.954 152.869 455.97 156.29 456.865 159.725C457.561 162.215 458.31 164.129 459.336 165.783C333.944 226.604 237.852 225.652 128.153 201.846C256.349 205.936 326.022 197.512 404.85 169.044C436.214 155.189 435.071 141.156 420.126 115.266C398.875 87.3434 381.297 75.7824 355.353 58.8434Z" fill="#121212" fill-opacity="0.35"/>
<path d="M492.751 348.192C483.98 487.723 154.524 433.425 125.513 305.312L491.465 348.042C500.206 348.158 508.451 348.593 492.751 348.192Z" fill="#121212" fill-opacity="0.35"/>
<path d="M470.695 195.582C468.891 207.04 468.689 207.264 465.301 210.949C462.149 216.871 464.157 211.216 463.738 213.41C464.94 218.123 466.67 222.978 468.656 227.407C470.039 230.574 471.21 233.804 472.352 237.065C472.7 238.058 472.7 238.058 473.056 239.072C479.212 256.903 484.547 274.958 488.15 293.483C488.324 294.377 488.498 295.27 488.677 296.191C491.165 309.31 492.701 322.383 493.17 335.73C493.24 337.48 493.335 339.229 493.458 340.975C494.022 349.01 494.258 355.6 488.905 362.041C486.361 364.739 483.645 367.167 480.806 369.549C479.864 370.375 478.922 371.202 477.952 372.053C475.29 374.3 472.566 376.425 469.79 378.53C468.943 379.203 468.095 379.876 467.222 380.569C450.34 393.651 430.689 401.292 410.068 406.156C408.87 406.444 407.672 406.733 406.437 407.03C388.097 411.133 369.784 412.487 351.024 411.909C348.815 411.842 346.607 411.788 344.398 411.749C287.376 410.605 227.407 390.882 178.026 362.93C177.302 362.524 176.578 362.118 175.831 361.699C160.506 353.035 146.809 343.771 135.788 329.825C135.125 329.014 134.463 328.203 133.781 327.367C128.461 320.207 126.495 312.516 124.582 303.949C124.197 302.254 123.763 300.57 123.318 298.89C119.165 281.707 119.767 262.37 123.27 245.117C123.415 244.341 123.561 243.564 123.712 242.764C125.306 234.845 127.65 227.463 134.227 222.347C139.831 220.204 143.94 220.829 149.62 222.009C151.398 222.351 153.176 222.693 154.954 223.035C156.347 223.312 156.347 223.312 157.768 223.593C184.342 228.838 211.023 232.563 238.128 233.324C239.3 233.365 240.472 233.406 241.68 233.448C269.615 234.404 297.602 234.313 325.366 230.735C328.38 230.349 331.396 229.983 334.413 229.621C352.311 227.465 369.999 224.825 387.616 220.937C389.313 220.563 389.313 220.563 391.045 220.182C411.306 215.662 431.25 210.49 450.77 203.387C451.72 203.043 452.67 202.699 453.649 202.344C457.289 200.983 467.473 194.925 470.695 195.582Z" fill="#232C2E"/>
<path d="M392.554 237.843C394.315 239.947 395.022 241.713 395.85 244.331C396.32 245.792 396.32 245.792 396.8 247.281C397.126 248.345 397.453 249.408 397.789 250.503C398.14 251.621 398.49 252.738 398.851 253.889C399.972 257.496 401.069 261.11 402.161 264.726C402.514 265.88 402.867 267.035 403.23 268.225C430.857 359.249 430.857 359.249 424.642 389.736C412.92 393.475 401.302 396.714 389.112 398.503C388.13 398.648 387.148 398.793 386.137 398.943C381.938 399.512 379.004 399.823 374.793 398.964C374.752 398.214 374.711 397.465 374.669 396.692C371.838 346.657 364.639 292.39 341.43 247.241C341.562 246.595 341.694 245.948 341.83 245.282C342.774 245.135 343.718 244.989 344.691 244.838C348.272 244.282 351.851 243.721 355.431 243.159C356.966 242.918 358.501 242.679 360.036 242.441C362.272 242.094 364.507 241.744 366.742 241.391C367.848 241.218 367.848 241.218 368.977 241.042C372.648 240.452 376.276 239.786 379.9 238.952C380.58 238.797 381.261 238.642 381.962 238.482C383.818 238.05 385.668 237.594 387.518 237.137C390.498 236.834 390.498 236.834 392.554 237.843Z" fill="#4E5758"/>
<path d="M433.887 224.248C437.497 226.504 438.301 228.809 439.541 232.807C440.1 234.587 440.1 234.587 440.67 236.402C441.062 237.696 441.453 238.991 441.844 240.285C442.255 241.626 442.668 242.967 443.08 244.308C453.449 278.224 460.632 312.482 465.632 347.562C465.951 349.769 466.287 351.974 466.658 354.172C467.451 359.204 467.537 362.734 464.929 367.333C462.511 369.493 459.886 371.152 457.113 372.82C456.392 373.273 455.672 373.727 454.929 374.194C453.161 375.304 451.379 376.391 449.594 377.474C448.279 374.247 447.968 372.177 447.741 368.748C447.661 367.651 447.581 366.554 447.499 365.423C447.413 364.232 447.327 363.04 447.238 361.813C445.269 337.398 440.845 313.483 434.82 289.754C434.549 288.675 434.279 287.595 434 286.482C429.462 268.493 424.05 250.927 416.736 233.861C416.012 231.83 416.012 231.83 416.412 229.87C418.156 229.359 418.156 229.359 419.935 228.838C421.452 228.391 422.969 227.945 424.486 227.498C425.253 227.273 426.02 227.049 426.811 226.818C430.498 225.879 430.498 225.879 433.887 224.248Z" fill="#4E5758"/>
<path d="M490.322 347.632C490.733 348.471 492.181 356.378 492.579 357.193C500.82 328.255 503.757 271.95 468.415 206.527C468.415 206.527 468.44 205.528 463.75 212.911C459.061 220.293 457.525 228.204 461.898 277.593L462.223 281.117C463.792 298.98 469.199 312.94 479.27 327.705C480.499 329.505 481.722 331.309 482.943 333.115C483.728 334.282 484.514 335.449 485.301 336.615C487.387 339.677 488.586 344.358 490.322 347.632Z" fill="#4E5758"/>
<path d="M233.329 39.0875C239.701 40.4639 245.003 44.5827 250.376 48.1004C251.561 48.8655 252.746 49.6301 253.931 50.3942C257.263 52.5488 260.577 54.7291 263.888 56.9147C264.647 57.4112 265.406 57.9076 266.188 58.4191C287.451 72.409 307.154 90.4107 323.506 109.892C324.282 110.804 325.058 111.716 325.857 112.656C330.877 118.668 335.331 124.901 339.507 131.525C336.177 130.846 335.475 130.123 333.118 127.786C332.429 127.116 331.741 126.445 331.032 125.754C330.283 125.02 329.535 124.286 328.763 123.53C307.597 103.279 284.031 85.458 257.653 72.5163C255.673 71.5342 253.718 70.5119 251.761 69.4839C234.404 60.4797 216.086 53.8018 197.04 49.4094C200.689 43.2939 205.82 40.8215 212.608 39.0609C219.552 37.7428 226.352 38.4045 233.329 39.0875Z" fill="#F3FF00"/>
<path d="M85.9377 128.816C86.6885 129.03 87.4393 129.245 88.2129 129.467C91.9557 130.526 95.7047 131.562 99.4558 132.592C100.662 132.924 101.869 133.255 103.112 133.597C120.279 138.19 137.7 141.752 155.067 145.494C159.478 146.445 163.889 147.401 168.3 148.356C176.899 150.218 185.5 152.075 194.101 153.929C194.035 154.252 193.969 154.576 193.901 154.909C180.992 154.633 168.145 154.042 155.286 152.841C154.211 152.743 153.136 152.645 152.029 152.545C134.627 150.838 117.531 147.652 100.43 144.081C98.5852 143.7 96.74 143.319 94.8947 142.938C90.4556 142.022 86.0179 141.1 81.5808 140.174C82.0069 138.794 82.4379 137.414 82.871 136.036C83.1105 135.268 83.35 134.5 83.5967 133.708C84.3586 131.555 84.3586 131.555 85.9377 128.816Z" fill="#F3FF00"/>
<path d="M127.417 365.88C130.585 367.882 132.215 369.291 134.257 372.377C133.573 374.789 133.573 374.789 132.278 377.077C127.082 379.193 122.416 377.726 117.181 376.04C114.199 374.066 112.505 371.533 110.541 368.563C111.124 366.64 111.124 366.64 112.319 364.843C117.515 362.726 122.154 364.313 127.417 365.88Z" fill="#F3FF00"/>
<path d="M473.713 180.25C471.591 173.527 467.781 169.443 461.853 165.834C459.317 165.226 459.317 165.226 456.396 166.25C407.452 191.587 347.644 203.356 293.35 210.175L289.523 210.649C275.915 212.339 262.405 213.457 248.693 213.728C245.875 213.778 243.059 213.838 240.243 213.934C229.638 214.332 219.107 214.432 208.5 213.966L204.804 213.784C187.886 212.963 171.513 210.303 154.87 207.321C151.895 206.782 148.92 206.245 145.942 205.719L143.098 205.219C135.927 203.894 127.858 201.881 121.039 205.217C113.518 212.225 111.624 221.512 109.934 231.235C109.683 232.684 109.422 234.131 109.153 235.577C105.966 252.454 105.343 269.384 106.877 286.518C110.543 316.995 119.876 340.904 144.17 360.57L145.986 362.032C168.852 380.65 194.125 395.605 221.274 407.084C223.875 408.173 226.468 409.269 229.048 410.406C258.398 423.409 288.779 431.094 320.255 436.945L323.02 437.452C328.556 438.478 334.022 439.294 339.641 439.694L341.734 439.83C371.819 442.033 401.574 442.714 430.986 434.568L434.661 433.452C442.945 431.005 451.019 428.285 458.891 424.706L461.073 423.689C466.024 421.39 470.547 418.768 475.035 415.657L477.116 414.202C484.16 409.443 485.917 406.704 490.997 399.751C498.997 384.723 499.147 368.609 493.497 353.723C479.997 374.723 451.559 392.557 428.608 399.751C427.299 400.15 425.99 400.549 424.682 400.949C404.47 407.438 383.199 410.786 361.96 410.57L358.641 410.518C306.514 409.949 254.573 397.039 207.152 375.59L204.692 374.468C191.258 368.358 178.27 361.509 165.679 353.805C147.178 342.192 133.027 327.107 127.998 305.365L127.418 302.646C125.194 292.26 124.348 282.093 124.313 271.485L124.311 269.187L124.258 265.572C124.371 253.405 125.951 234.405 134.864 225.397C140.226 222.957 143.85 222.596 149.621 223.601L152.244 224.117C155.113 224.63 157.98 225.146 160.844 225.687C164.716 226.422 168.592 227.128 172.469 227.832L175.299 228.345C182.329 229.628 189.334 230.798 196.442 231.58L199.814 231.915C233.164 235.287 266.137 235.657 299.6 233.92L303.374 233.717C349.379 231.247 397.436 221.932 440.905 206.737L443.255 205.908C452.062 202.833 465.679 200.139 472.213 193.202C473.981 188.837 474.319 184.892 473.713 180.25Z" fill="#F3FF00"/>
<defs>
<filter id="filter0_i_113_291" x="50.3398" y="38.2646" width="456.488" height="478.888" filterUnits="userSpaceOnUse" color-interpolation-filters="sRGB">
<feFlood flood-opacity="0" result="BackgroundImageFix"/>
<feBlend mode="normal" in="SourceGraphic" in2="BackgroundImageFix" result="shape"/>
<feColorMatrix in="SourceAlpha" type="matrix" values="0 0 0 0 0 0 0 0 0 0 0 0 0 0 0 0 0 0 127 0" result="hardAlpha"/>
<feOffset dx="12"/>
<feGaussianBlur stdDeviation="11"/>
<feComposite in2="hardAlpha" operator="arithmetic" k2="-1" k3="1"/>
<feColorMatrix type="matrix" values="0 0 0 0 0 0 0 0 0 0 0 0 0 0 0 0 0 0 0.25 0"/>
<feBlend mode="normal" in2="shape" result="effect1_innerShadow_113_291"/>
</filter>
</defs>
</svg>
