<svg width="125" height="124" viewBox="0 0 125 124" fill="none" xmlns="http://www.w3.org/2000/svg">
<g filter="url(#filter0_i_114_337)">
<path d="M86.9856 29.1941L87.4077 29.5508C92.3843 33.8053 96.6703 38.7888 98.5865 45.1517L98.774 45.6895C99.4802 47.7998 99.6437 50.0625 99.5484 52.2748C99.5221 53.3268 99.6969 53.886 100.328 54.7185C100.946 55.5531 101.013 56.4804 100.89 57.478C100.646 58.0894 100.334 58.6555 100.013 59.2294L99.7689 59.69C99.3668 60.4207 99.0201 60.978 98.3481 61.4816C97.7659 61.9183 97.7659 61.9183 97.761 62.6032C97.7878 62.8436 97.821 63.0834 97.8592 63.3223C97.8902 63.5916 97.9206 63.861 97.9506 64.1304L98.0022 64.5457C98.0729 65.1639 98.1039 65.7815 98.1281 66.4031L98.1432 66.7856C98.2607 70.1796 98.225 73.5687 97.8665 76.9471L97.8142 77.441C97.7004 78.4668 98.2581 77.4317 98.7909 76.3775C101.376 67.332 100.387 70.8546 98.8715 76.2176C99.9307 74.1111 100.749 72.3422 95.7199 87.3491C95.7199 87.3491 97.5086 81.0395 98.8715 76.2176C98.8447 76.2707 98.8178 76.3241 98.7909 76.3775C97.9985 79.15 96.8703 83.1033 95.3187 88.5463C84.153 127.714 54.5511 109.25 25.7308 77.645C21.6917 65.3121 22.9356 46.9761 28.7658 35.4539C28.9845 35.0414 29.2059 34.6303 29.4299 34.2205L29.6064 33.8974C30.7544 31.809 31.9606 29.7429 34.3864 29.0283C35.4265 28.7751 35.4265 28.7751 35.8375 28.999L36.08 28.7083C39.2347 25.0931 43.7807 22.7636 48.3028 21.3531C48.567 21.2705 48.8307 21.1862 49.094 21.1007C52.6396 19.9519 56.4065 19.2677 60.1459 19.2771C60.7817 19.2501 61.1246 19.1747 61.6859 18.9054C63.4468 18.2114 65.19 18.7639 66.8673 19.461C67.1631 19.6001 67.4586 19.7397 67.7538 19.88C68.6821 20.3031 69.6219 20.5537 70.6061 20.8065C76.3856 22.3394 82.4116 25.304 86.9856 29.1941Z" fill="#0F6DF9"/>
</g>
<path d="M87.4077 29.5508L86.9856 29.1941C82.4116 25.304 76.3856 22.3394 70.6061 20.8065C69.6219 20.5537 68.6821 20.3031 67.7538 19.88C67.4586 19.7397 67.1631 19.6001 66.8673 19.461C65.19 18.7639 63.4468 18.2114 61.6859 18.9054C70.386 25.378 75.3319 29.676 77.8117 36.2558C70.3586 28.8922 64.7776 24.7906 55.4802 19.6094C53.309 19.9178 51.1638 20.4301 49.094 21.1007C48.8307 21.1862 48.567 21.2705 48.3028 21.3531C44.8618 22.4264 41.407 24.0318 38.5618 26.3309L54.64 37.4145L37.1608 27.5701C36.7852 27.9345 36.4243 28.3138 36.08 28.7083L35.8375 28.999C35.4265 28.775 35.4265 28.775 34.3864 29.0283C31.9606 29.7428 30.7544 31.809 29.6064 33.8974L29.4299 34.2205C29.2059 34.6303 28.9845 35.0414 28.7658 35.4539C26.0512 44.1885 24.751 49.7517 23.3891 62.5415C23.1879 52.9594 25.0407 42.8159 28.7658 35.4539C28.9845 35.0414 29.2059 34.6303 29.4299 34.2205L29.6064 33.8974C30.7544 31.809 31.9606 29.7428 34.3864 29.0283C35.4265 28.775 35.4265 28.775 35.8375 28.999L36.08 28.7083C36.4243 28.3138 36.7852 27.9345 37.1608 27.5701C37.6079 27.1363 38.076 26.7235 38.5618 26.3309C41.407 24.0318 44.8618 22.4264 48.3028 21.3531C48.567 21.2705 48.8307 21.1862 49.094 21.1007C51.1638 20.4301 53.309 19.9178 55.4802 19.6094C57.0282 19.3895 58.5894 19.2732 60.1459 19.2771C60.7817 19.2501 61.1246 19.1747 61.6859 18.9054C63.4468 18.2114 65.19 18.7639 66.8673 19.461C67.1631 19.6001 67.4586 19.7397 67.7538 19.88C68.6821 20.3031 69.6219 20.5537 70.6061 20.8065C76.3856 22.3394 82.4116 25.304 86.9856 29.1941L87.4077 29.5508C92.3843 33.8053 96.6703 38.7888 98.5865 45.1517L98.774 45.6895C99.2764 47.191 99.5042 48.7695 99.5594 50.3522C99.5818 50.994 99.5759 51.6365 99.5484 52.2748C99.5368 52.7402 99.5645 53.1091 99.6536 53.4479C74.861 57.2911 58.374 52.0511 40.7527 42.1591C62.5989 49.6351 75.0345 51.8659 90.1045 51.1309C96.234 50.4034 96.7788 47.9278 95.5744 42.6828C93.3922 36.7547 90.9778 33.8365 87.4077 29.5508Z" fill="#121212" fill-opacity="0.35"/>
<path d="M95.7682 86.6055C86.8878 110.155 33.0575 83.4065 34.8325 59.8259L95.5549 86.5117C97.0531 86.9934 98.4491 87.5039 95.7682 86.6055Z" fill="#121212" fill-opacity="0.35"/>
<path d="M100.034 59.1767C99.1184 61.0532 99.0719 61.0812 98.294 61.5364C97.4388 62.389 98.083 61.5218 97.895 61.8774C97.8529 62.752 97.8942 63.6788 98.002 64.546C98.0727 65.1642 98.1037 65.7818 98.1279 66.4033C98.1354 66.5927 98.1354 66.5927 98.1431 66.7859C98.2605 70.1799 98.2248 73.5689 97.8663 76.9473C97.849 77.1103 97.8318 77.2733 97.814 77.4413C97.5491 79.8304 97.1228 82.1614 96.4985 84.4832C96.4181 84.788 96.3421 85.094 96.271 85.4011C95.9436 86.8137 95.636 87.9603 94.3746 88.7859C93.7943 89.1158 93.1985 89.3902 92.5842 89.6503C92.3784 89.7427 92.1726 89.8351 91.9606 89.9303C91.3838 90.1765 90.8028 90.3982 90.2139 90.6138C90.0325 90.6849 89.8511 90.756 89.6641 90.8292C86.0678 92.1887 82.2822 92.4656 78.4764 92.2133C78.2549 92.1997 78.0335 92.186 77.8054 92.172C74.4324 91.9092 71.2092 91.1747 68.0111 90.0844C67.6346 89.9561 67.2573 89.8301 66.8793 89.7067C57.1263 86.4976 47.8477 79.9353 40.8259 72.5162C40.7227 72.408 40.6196 72.2998 40.5133 72.1884C38.3335 69.8877 36.4656 67.5699 35.3056 64.5876C35.2345 64.4131 35.1634 64.2385 35.0902 64.0586C34.5528 62.5452 34.6208 61.1178 34.744 59.5424C34.7674 59.2304 34.7816 58.9177 34.7937 58.605C34.9867 55.4285 36.1119 52.1323 37.6261 49.3483C37.6923 49.2223 37.7584 49.0963 37.8265 48.9665C38.5192 47.6879 39.3125 46.5413 40.7147 46.0084C41.7924 45.9356 42.4666 46.2602 43.3817 46.7634C43.6696 46.9162 43.9576 47.069 44.2455 47.2218C44.4706 47.3429 44.4706 47.3429 44.7003 47.4665C48.9965 49.7729 53.3916 51.8234 58.016 53.3863C58.2156 53.4552 58.4152 53.5242 58.6208 53.5952C63.3778 55.2354 68.1991 56.6982 73.1663 57.5491C73.7054 57.642 74.2438 57.7383 74.7822 57.8354C77.9762 58.4098 81.1597 58.8898 84.3969 59.1515C84.7088 59.1768 84.7088 59.1768 85.0271 59.2026C88.7527 59.4952 92.4582 59.6586 96.1927 59.4673C96.3744 59.4583 96.5561 59.4492 96.7433 59.4399C97.4416 59.3979 99.5143 58.8934 100.034 59.1767Z" fill="#232C2E"/>
<path d="M84.3539 62.3214C84.5458 62.7767 84.5741 63.1179 84.5784 63.6123C84.5821 63.8884 84.5821 63.8884 84.5859 64.1701C84.586 64.3703 84.586 64.5706 84.5861 64.7769C84.5874 64.9877 84.5887 65.1985 84.59 65.4157C84.5923 66.0957 84.5902 66.7755 84.5872 67.4555C84.5869 67.6728 84.5866 67.8902 84.5863 68.1141C84.5323 85.2387 84.5323 85.2387 81.852 90.1571C79.6374 90.1814 77.4667 90.125 75.2743 89.7889C75.0977 89.762 74.9211 89.7352 74.7392 89.7075C73.9864 89.5837 73.4651 89.4821 72.7858 89.1119C72.8183 88.9807 72.8509 88.8495 72.8845 88.7143C75.0403 79.9538 76.6683 70.2342 75.0591 61.2382C75.1159 61.1339 75.1728 61.0295 75.2313 60.922C75.4016 60.9467 75.5719 60.9714 75.7473 60.9969C76.3928 61.0903 77.0385 61.1829 77.6842 61.2752C77.9611 61.3149 78.2379 61.3548 78.5147 61.395C78.9178 61.4534 79.321 61.5111 79.7242 61.5685C79.9237 61.5972 79.9237 61.5972 80.1273 61.6264C80.7902 61.7188 81.4498 61.796 82.1175 61.8438C82.2428 61.8531 82.3682 61.8624 82.4973 61.8719C82.8395 61.8955 83.1819 61.9149 83.5244 61.934C84.0534 62.0392 84.0534 62.0392 84.3539 62.3214Z" fill="#4E5758"/>
<path d="M92.1852 62.1654C92.6873 62.7444 92.7039 63.1835 92.7061 63.9372C92.7083 64.2729 92.7083 64.2729 92.7106 64.6154C92.7097 64.8589 92.7086 65.1023 92.7073 65.3458C92.7074 65.5983 92.7075 65.8508 92.7076 66.1033C92.7004 72.488 92.1269 78.7631 91.1342 85.0645C91.0725 85.4611 91.0138 85.8583 90.9616 86.2564C90.8322 87.1641 90.6605 87.7763 89.9688 88.4299C89.4384 88.6739 88.8992 88.8207 88.3338 88.9613C88.1858 89.0013 88.0378 89.0413 87.8853 89.0825C87.5224 89.18 87.1583 89.273 86.7939 89.3651C86.7381 88.7402 86.7939 88.3675 86.936 87.7655C86.9802 87.5724 87.0244 87.3794 87.07 87.1805C87.1181 86.9709 87.1662 86.7613 87.2158 86.5453C88.1666 82.2396 88.6687 77.8901 88.8852 73.4882C88.8957 73.2881 88.9062 73.088 88.917 72.8818C89.0863 69.5462 89.0829 66.2372 88.7257 62.9137C88.7085 62.5259 88.7085 62.5259 88.8807 62.2098C89.2079 62.214 89.2079 62.214 89.5416 62.2183C89.8263 62.2216 90.1109 62.2248 90.3956 62.228C90.5395 62.23 90.6834 62.2319 90.8317 62.2338C91.5158 62.267 91.5158 62.267 92.1852 62.1654Z" fill="#4E5758"/>
<path d="M95.3798 86.3807C95.4061 86.5468 95.2376 87.9841 95.2631 88.1453C98.2101 83.6006 101.69 74.0658 99.0636 60.9396C99.0636 60.9396 99.1208 60.7689 97.9237 61.7917C96.7266 62.8145 96.0444 64.0948 94.188 72.8255L94.0577 73.4492C93.3841 76.6062 93.5771 79.2944 94.5303 82.3675C94.6469 82.7421 94.762 83.1172 94.8766 83.4924L95.0975 84.2195C95.2947 84.8566 95.254 85.7255 95.3798 86.3807Z" fill="#4E5758"/>
<path d="M67.4509 19.7047C68.4749 20.2782 69.1697 21.2671 69.9086 22.1564C70.072 22.3506 70.2356 22.5448 70.3992 22.7389C70.8587 23.2857 71.3139 23.836 71.7683 24.3871C71.8727 24.5126 71.9771 24.6381 72.0846 24.7675C75.0049 28.2984 77.4448 32.4373 79.2299 36.6539C79.3152 36.8518 79.4005 37.0497 79.4884 37.2537C80.0348 38.5535 80.472 39.8615 80.8408 41.2221C80.3036 40.9293 80.2208 40.7678 79.9387 40.2411C79.8556 40.0893 79.7726 39.9376 79.6871 39.7812C79.597 39.6153 79.5069 39.4494 79.4141 39.2785C76.8412 34.6752 73.7271 30.3634 69.871 26.7427C69.5822 26.4691 69.2997 26.1899 69.0173 25.9096C66.5059 23.4431 63.7061 21.3261 60.6603 19.5641C61.6114 18.7044 62.6251 18.5499 63.8863 18.6055C65.1509 18.7455 66.2863 19.2186 67.4509 19.7047Z" fill="#F3FF00"/>
<path d="M37.3454 27.3603C37.4633 27.4369 37.5812 27.5136 37.7026 27.5925C38.2908 27.9726 38.8812 28.3489 39.4724 28.7243C39.6625 28.8451 39.8526 28.9659 40.0485 29.0904C42.7602 30.7878 45.5703 32.321 48.3614 33.8824C49.0704 34.2792 49.7789 34.6767 50.4875 35.0741C51.8692 35.8488 53.2512 36.6227 54.6335 37.3962C54.605 37.4484 54.5766 37.5005 54.5473 37.5543C52.3402 36.8248 50.1605 36.0444 48.011 35.1584C47.8312 35.0848 47.6513 35.0112 47.466 34.9354C44.5614 33.7224 41.7875 32.2709 39.0332 30.753C38.7358 30.5899 38.4383 30.4269 38.1409 30.2639C37.4253 29.8718 36.7103 29.4786 35.9956 29.0849C36.1419 28.8698 36.2889 28.6552 36.4362 28.4409C36.518 28.3213 36.5998 28.2018 36.6841 28.0786C36.9289 27.7484 36.9289 27.7484 37.3454 27.3603Z" fill="#F3FF00"/>
<path d="M31.9604 70.3502C32.3999 70.8622 32.6061 71.1907 32.7943 71.8297C32.5494 72.2087 32.5494 72.2087 32.2056 72.5339C31.1996 72.6238 30.474 72.1248 29.6621 71.558C29.2534 71.0607 29.0955 70.5354 28.9144 69.9204C29.1163 69.6204 29.1163 69.6204 29.417 69.3742C30.4229 69.2844 31.1376 69.8026 31.9604 70.3502Z" fill="#F3FF00"/>
<path d="M101.364 56.6973C101.354 55.4282 100.914 54.524 100.084 53.5898C99.6798 53.3511 99.6798 53.3511 99.123 53.373C89.3615 55.148 78.447 54.0139 68.7428 52.3193L68.0592 52.1987C65.6279 51.7707 63.2439 51.2493 60.8697 50.5716C60.3821 50.4314 59.8944 50.293 59.4046 50.1608C57.5584 49.6689 55.7407 49.1299 53.9401 48.4893L53.3136 48.2629C50.4453 47.2277 47.7682 45.9051 45.0614 44.5126C44.5779 44.2627 44.0942 44.0131 43.6096 43.7654L43.1465 43.5289C41.9825 42.9222 40.7001 42.1495 39.3503 42.3634C37.6858 43.1722 36.8692 44.6704 36.0648 46.2544C35.9449 46.4905 35.8236 46.7258 35.7008 46.9604C34.2609 49.6964 33.2594 52.5772 32.6182 55.607C31.6392 61.0457 31.9822 65.6534 35.1244 70.3212L35.3596 70.6689C38.3113 75.0808 41.8707 78.9898 45.9366 82.3995C46.3266 82.7241 46.7151 83.0498 47.099 83.3818C51.4632 87.17 56.2857 90.0976 61.3936 92.7672L61.8426 93.0006C62.7412 93.4697 63.6388 93.8988 64.5847 94.2644L64.9377 94.3985C69.9989 96.3668 75.0837 98.0559 80.5757 98.2077L81.2671 98.2098C82.822 98.2263 84.3553 98.1847 85.8991 97.9847L86.3283 97.9249C87.3018 97.7907 88.2188 97.5785 89.1554 97.2801L89.5905 97.1397C91.0541 96.6928 91.5011 96.3142 92.7428 95.386C94.9135 93.2222 95.7905 90.4571 95.6045 87.5967C92.1719 90.4976 86.3355 92.0646 82.0057 92.0901L81.2667 92.089C77.4456 92.138 73.608 91.5905 69.9642 90.4314L69.3957 90.2471C60.4548 87.3953 52.198 82.4298 45.17 76.2334L44.8058 75.9102C42.8166 74.1491 40.9432 72.2843 39.1833 70.2932C36.6129 67.3174 34.9744 63.9736 35.2574 59.9663L35.3013 59.4677C35.4671 57.5629 35.8587 55.7684 36.413 53.9409L36.534 53.5454L36.7159 52.9204C37.3782 50.8324 38.6538 47.6461 40.6635 46.5666C41.7152 46.4301 42.358 46.5594 43.298 47.0371L43.7223 47.2645C44.1889 47.5043 44.6551 47.7447 45.1193 47.9891C45.7468 48.3201 46.3767 48.6463 47.0067 48.9724L47.4665 49.2101C48.6087 49.8023 49.7524 50.3737 50.9343 50.8837L51.497 51.1195C57.0583 53.4615 62.7134 55.2671 68.564 56.736L69.2243 56.9004C77.272 58.9056 86.0347 59.8411 94.3183 59.5224L94.7666 59.504C96.4448 59.4399 98.9305 59.6958 100.421 58.8471C100.956 58.1892 101.223 57.5281 101.364 56.6973Z" fill="#F3FF00"/>
<defs>
<filter id="filter0_i_114_337" x="23.3743" y="18.5859" width="89.5669" height="92.1462" filterUnits="userSpaceOnUse" color-interpolation-filters="sRGB">
<feFlood flood-opacity="0" result="BackgroundImageFix"/>
<feBlend mode="normal" in="SourceGraphic" in2="BackgroundImageFix" result="shape"/>
<feColorMatrix in="SourceAlpha" type="matrix" values="0 0 0 0 0 0 0 0 0 0 0 0 0 0 0 0 0 0 127 0" result="hardAlpha"/>
<feOffset dx="12"/>
<feGaussianBlur stdDeviation="11"/>
<feComposite in2="hardAlpha" operator="arithmetic" k2="-1" k3="1"/>
<feColorMatrix type="matrix" values="0 0 0 0 0 0 0 0 0 0 0 0 0 0 0 0 0 0 0.25 0"/>
<feBlend mode="normal" in2="shape" result="effect1_innerShadow_114_337"/>
</filter>
</defs>
</svg>
